# xmcd
#
# Track frame offsets:
#	150
#	10253
#	18151
#	28376
#	45579
#	62783
#	73913
#	85536
#	101576
#	111465
#	122976
#	140155
#	154955
#	167184
#	177986
#	189407
#	200263
#	227363
#	244166
#	256882
#	270002
#	284180
#	296508
#	308563
#	319020
#
# Disc length: 4421
#
# Revision: 2
# Processed by: cddbd v1.5.1PL0 Copyright (c) Steve Scherf et al.
# Submitted via: FreeRIP 2.60 
# Normalized: r0:TDELIM( - ),TSWAP
#
DISCID=69114319
DTITLE=The Best Ever Country Revival - Vol.3
DYEAR=2000
DGENRE=Country
TTITLE0=Kitty Wells - I Can't Stop Loving You
TTITLE1=Roger Miller - Dang Me
TTITLE2=Jack Reno - Hitchin' A Ride
TTITLE3=Charlie Rich - My Elusive Dreams
TTITLE4=Glen Campbell - Southern Nights (Live)
TTITLE5=Slim Whitman - The Wayward Wind
TTITLE6=Patsy Cline - Walkin' After Midnight
TTITLE7=Bill Anderson - Mama Sang A Song
TTITLE8=Claude King - The Commancheros
TTITLE9=Willie Nelson - I'll Stay Around
TTITLE10=Ray Price - For The Good Times
TTITLE11=Don Gibson - Sweet Dreams
TTITLE12=Merle Haggard - I Take A Lot Of Pride In What I Am
TTITLE13=Faron Young - Riverboat
TTITLE14=Skeeter Davos - Gonna Get Along Without You Now
TTITLE15=Billy Walker - Charlie's Shoes
TTITLE16=Jimmy Dean - Sleeping Beauty
TTITLE17=Lee Greenwood - Fool's Gold
TTITLE18=Johnny Paycheck - Love is A Good Thing
TTITLE19=Stonewall Jackson - Nobody's Darlin' But Mine
TTITLE20=Lynn Anderson - Cry
TTITLE21=Jeannie Pruett - Satin Sheets
TTITLE22=Jack Greene - There Goes My Everything
TTITLE23=Charlie Walker - Pick Me Up On Your Way Down
TTITLE24=Dickey Lee - Never Ending Song Of Love
EXTD=HolziHD
EXTT0=
EXTT1=
EXTT2=
EXTT3=
EXTT4=
EXTT5=
EXTT6=
EXTT7=
EXTT8=
EXTT9=
EXTT10=
EXTT11=
EXTT12=
EXTT13=
EXTT14=
EXTT15=
EXTT16=
EXTT17=
EXTT18=
EXTT19=
EXTT20=
EXTT21=
EXTT22=
EXTT23=
EXTT24=
PLAYORDER=
